<svg width="15" height="15" viewBox="0 0 15 15" fill="none" xmlns="http://www.w3.org/2000/svg">
<path d="M11.0111 3.73006L11.9194 2.8217L12.8033 3.70558L11.8949 4.61394C12.6647 5.57624 13.125 6.79688 13.125 8.125C13.125 11.2316 10.6066 13.75 7.5 13.75C4.3934 13.75 1.875 11.2316 1.875 8.125C1.875 5.0184 4.3934 2.5 7.5 2.5C8.82812 2.5 10.0487 2.96029 11.0111 3.73006ZM7.5 12.5C9.91625 12.5 11.875 10.5413 11.875 8.125C11.875 5.70876 9.91625 3.75 7.5 3.75C5.08376 3.75 3.125 5.70876 3.125 8.125C3.125 10.5413 5.08376 12.5 7.5 12.5ZM6.875 5H8.125V8.75H6.875V5ZM5 0.625H10V1.875H5V0.625Z" fill="#FFA826"/>
</svg>
