<svg width="16" height="16" viewBox="0 0 16 16" fill="none" xmlns="http://www.w3.org/2000/svg">
<path d="M6.00065 0.666748V2.00008H10.0007V0.666748H11.334V2.00008H14.0007C14.3689 2.00008 14.6673 2.29856 14.6673 2.66675V13.3334C14.6673 13.7016 14.3689 14.0001 14.0007 14.0001H2.00065C1.63246 14.0001 1.33398 13.7016 1.33398 13.3334V2.66675C1.33398 2.29856 1.63246 2.00008 2.00065 2.00008H4.66732V0.666748H6.00065ZM13.334 7.33341H2.66732V12.6667H13.334V7.33341ZM5.33398 8.66675V10.0001H4.00065V8.66675H5.33398ZM8.66732 8.66675V10.0001H7.33398V8.66675H8.66732ZM12.0007 8.66675V10.0001H10.6673V8.66675H12.0007ZM4.66732 3.33341H2.66732V6.00008H13.334V3.33341H11.334V4.66675H10.0007V3.33341H6.00065V4.66675H4.66732V3.33341Z" fill="#7A8083"/>
</svg>
