<svg width="14" height="14" viewBox="0 0 14 14" fill="none" xmlns="http://www.w3.org/2000/svg">
<path d="M5.00016 0.666748V2.00008H9.00016V0.666748H10.3335V2.00008H13.0002C13.3684 2.00008 13.6668 2.29856 13.6668 2.66675V13.3334C13.6668 13.7016 13.3684 14.0001 13.0002 14.0001H1.00016C0.631976 14.0001 0.333496 13.7016 0.333496 13.3334V2.66675C0.333496 2.29856 0.631976 2.00008 1.00016 2.00008H3.66683V0.666748H5.00016ZM12.3335 7.33341H1.66683V12.6667H12.3335V7.33341ZM6.3335 8.66675V11.3334H3.00016V8.66675H6.3335ZM3.66683 3.33341H1.66683V6.00008H12.3335V3.33341H10.3335V4.66675H9.00016V3.33341H5.00016V4.66675H3.66683V3.33341Z" fill="#7A8083"/>
</svg>
