<svg width="12" height="14" viewBox="0 0 12 14" fill="none" xmlns="http://www.w3.org/2000/svg">
<path d="M10.6667 5.66658H11.3333C11.7015 5.66658 12 5.96505 12 6.33325V12.9999C12 13.3681 11.7015 13.6666 11.3333 13.6666H0.666667C0.29848 13.6666 0 13.3681 0 12.9999V6.33325C0 5.96505 0.29848 5.66658 0.666667 5.66658H1.33333V4.99992C1.33333 2.42259 3.42267 0.333252 6 0.333252C8.57733 0.333252 10.6667 2.42259 10.6667 4.99992V5.66658ZM9.33333 5.66658V4.99992C9.33333 3.15897 7.84093 1.66659 6 1.66659C4.15905 1.66659 2.66667 3.15897 2.66667 4.99992V5.66658H9.33333ZM5.33333 8.33325V10.9999H6.66667V8.33325H5.33333Z" fill="#FFA826"/>
</svg>
