<svg width="16" height="16" viewBox="0 0 16 16" fill="none" xmlns="http://www.w3.org/2000/svg">
<g clip-path="url(#clip0_1086_29868)">
<path d="M3.47208 11.4975L7.51563 13.832C6.60892 14.5243 5.45796 14.8328 4.32656 14.6866C3.63423 13.7798 3.32587 12.6289 3.47208 11.4975ZM10.6897 11.6653L11.0883 13.6415L10.446 14.7541L1.20839 9.42072L1.85073 8.30817L3.76149 7.66529L5.69641 4.31391C6.85749 2.30286 9.29119 1.4268 11.6754 1.95793C13.3276 3.75719 13.7857 6.30286 12.6246 8.31391L10.6897 11.6653ZM8.49386 7.46858C9.1316 7.83678 9.94703 7.61829 10.3152 6.98058C10.6834 6.34286 10.4649 5.52741 9.82718 5.15921C9.18944 4.79101 8.374 5.00952 8.00581 5.64725C7.63763 6.28496 7.85612 7.10038 8.49386 7.46858Z" fill="#FFA826"/>
</g>
<defs>
<clipPath id="clip0_1086_29868">
<rect width="16" height="16" fill="white"/>
</clipPath>
</defs>
</svg>
